<?xml version="1.0" standalone="no"?>
<!DOCTYPE svg PUBLIC "-//W3C//DTD SVG 20010904//EN"
 "http://www.w3.org/TR/2001/REC-SVG-20010904/DTD/svg10.dtd">
<svg version="1.0" xmlns="http://www.w3.org/2000/svg"
 width="300.000000pt" height="300.000000pt" viewBox="0 0 300.000000 300.000000"
 preserveAspectRatio="xMidYMid meet">
<metadata>
Created by potrace 1.10, written by Peter Selinger 2001-2011
</metadata>
<g transform="translate(0.000000,300.000000) scale(0.100000,-0.100000)"
fill="#000000" stroke="none">
<path d="M1467 2328 l-47 -52 0 -578 0 -578 313 0 c275 1 309 2 287 15 -20 11
-79 14 -292 15 -181 0 -269 3 -274 11 -3 6 -6 253 -6 549 1 485 3 542 18 565
9 14 20 25 25 25 5 0 9 -226 9 -504 0 -277 3 -518 6 -535 4 -17 16 -37 27 -43
13 -7 132 -12 331 -14 171 -2 321 -6 334 -9 22 -5 20 -9 -30 -62 -68 -71 -85
-89 -141 -140 l-45 -43 -363 0 c-282 -1 -364 2 -370 12 -4 7 -9 197 -9 423 -2
489 -2 501 -17 516 -21 21 -103 -18 -103 -49 0 -5 -7 -12 -14 -15 -13 -5 -15
-80 -16 -510 0 -488 0 -504 19 -521 18 -17 47 -18 360 -17 359 1 372 0 303
-41 -24 -14 -71 -16 -375 -15 -297 2 -349 4 -357 17 -6 9 -9 235 -9 549 0 523
0 534 20 560 52 66 221 231 236 231 5 0 8 -237 8 -526 l0 -527 25 -18 c28 -21
29 -21 388 -19 265 0 264 0 319 78 27 39 6 36 -40 -7 l-44 -41 -311 0 -311 0
-1 567 c0 312 -2 568 -4 570 -2 2 -70 -64 -152 -147 l-149 -150 -6 -67 c-4
-38 -7 -299 -8 -580 l-1 -513 23 -5 c12 -3 187 -5 389 -3 l366 3 55 50 c30 28
55 53 56 58 1 4 -172 7 -384 7 l-385 0 0 498 0 498 45 44 45 44 0 -498 0 -498
23 6 c12 3 189 6 393 6 l371 0 154 153 154 152 -387 3 -388 2 0 575 c0 316 -4
575 -8 575 -4 0 -29 -23 -55 -52z"/>
</g>
</svg>
